# This file uses centimeters as units for non-parametric coordinates.

mtllib tunnel_exit.mtl
g default
v 0.000000 11.227378 -2.675444
v 0.000000 9.550580 -5.088998
v 0.000000 6.938903 -7.004402
v 0.000000 3.647997 -8.234169
v -0.000000 -0.000000 -8.657913
v -0.000000 -0.000000 8.657912
v 0.000000 3.647994 8.234165
v 0.000000 6.938899 7.004399
v 0.000000 9.550573 5.088995
v 0.000000 11.227374 2.675442
v 0.000000 11.805157 0.000000
v -3.693282 11.253777 -2.663876
v -3.693282 9.573034 -5.066992
v -3.693282 6.955215 -6.974115
v -3.693282 3.656573 -8.198563
v -3.693282 0.000000 -8.620477
v -3.693282 -0.000000 8.620476
v -3.693282 3.656571 8.198559
v -3.693282 6.955213 6.974114
v -3.693282 9.573028 5.066990
v -3.693282 11.253770 2.663874
v -3.693282 11.832911 0.000000
v -7.025041 11.561971 -2.722017
v -7.025041 9.835201 -5.177588
v -7.025041 7.145691 -7.126337
v -7.025041 3.756711 -8.377511
v -7.025041 0.000000 -8.808636
v -7.025041 -0.000000 8.808635
v -7.025041 3.756709 8.377510
v -7.025041 7.145688 7.126336
v -7.025041 9.835195 5.177586
v -7.025041 11.561964 2.722017
v -7.025041 12.156971 0.000000
v -9.669137 11.757513 -2.663961
v -9.669137 10.061849 -5.067155
v -9.669137 7.420782 -6.974343
v -9.669137 4.092848 -8.198833
v -9.669137 0.403809 -8.620757
v -9.669137 0.403809 8.620754
v -9.669137 4.092848 8.198827
v -9.669137 7.420778 6.974338
v -9.669137 10.061837 5.067151
v -9.669137 11.757506 2.663960
v -9.669137 12.341789 -0.000000
v -12.479137 12.254521 -2.460501
v -12.479137 10.955058 -4.680147
v -12.479137 7.959312 -6.441669
v -12.479137 4.184459 -7.572640
v -12.479137 0.000002 -7.962344
v -12.479137 0.000002 7.962339
v -12.479137 4.184455 7.572634
v -12.479137 7.959309 6.441663
v -12.479137 10.331127 4.680145
v -12.479137 12.254516 2.460498
v -12.479137 12.783691 -0.000000
v -12.479137 14.673941 -3.451393
v -12.479137 12.482405 -6.564939
v -12.479137 9.068995 -9.035862
v -12.479137 4.767855 -10.622296
v -12.479137 0.000001 -11.168940
v -12.479137 0.000001 11.168938
v -12.479137 4.767851 10.622292
v -12.479137 9.068991 9.035861
v -12.479137 12.482396 6.564937
v -12.479137 14.673937 3.451390
v -12.479137 15.429086 -0.000000
v -9.669139 15.537045 -3.667773
v -9.669139 13.216597 -6.976518
v -9.669139 9.602418 -9.602357
v -9.669139 5.048290 -11.288247
v -9.669139 -0.000000 -11.869162
v -9.669139 -0.000000 11.869160
v -9.669139 5.048288 11.288241
v -9.669139 9.602415 9.602354
v -9.669139 13.216592 6.976516
v -9.669139 15.537038 3.667772
v -9.669139 16.336596 0.000000
v -7.025041 16.262664 -3.855597
v -7.025041 13.833845 -7.333780
v -7.025041 10.050875 -10.094081
v -7.025041 5.284058 -11.866308
v -7.025041 0.000000 -12.476970
v -7.025041 -0.000001 12.476969
v -7.025041 5.284054 11.866297
v -7.025041 10.050871 10.094081
v -7.025041 13.833840 7.333778
v -7.025041 16.262645 3.855595
v -7.025041 17.099562 0.000000
v -3.693283 16.779767 -3.996476
v -3.693283 14.273724 -7.601749
v -3.693283 10.370466 -10.462911
v -3.693283 5.452076 -12.299889
v -3.693283 0.000000 -12.932867
v -3.693283 -0.000001 12.932866
v -3.693283 5.452073 12.299885
v -3.693283 10.370459 10.462904
v -3.693283 14.273716 7.601746
v -3.693283 16.779761 3.996475
v -3.693283 17.643284 0.000000
v 0.000000 17.037753 -4.076622
v 0.000000 14.493178 -7.754198
v 0.000000 10.529908 -10.672738
v 0.000000 5.535901 -12.546559
v 0.000000 0.000000 -13.192227
v -0.000000 -0.000001 13.192221
v 0.000000 5.535896 12.546546
v 0.000000 10.529903 10.672727
v 0.000000 14.493163 7.754193
v 0.000000 17.037739 4.076619
v 0.000000 17.914537 0.000000
vt -0.608740 0.837425
vt -0.520154 0.837425
vt -0.530289 0.961575
vt -0.608136 0.960276
vt -0.440238 0.837425
vt -0.451064 0.963027
vt -0.528369 1.072247
vt -0.606672 1.071375
vt -0.697327 0.837425
vt -0.686294 0.959537
vt -0.383112 0.849092
vt -0.366547 0.960530
vt -0.445998 1.070738
vt -0.524062 1.160015
vt -0.604832 1.159362
vt -0.685495 1.069381
vt -0.777242 0.837425
vt -0.768809 0.959891
vt -0.357822 1.062576
vt -0.438271 1.157847
vt -0.518645 1.251907
vt -0.603508 1.251660
vt -0.685479 1.156306
vt -0.770050 1.066182
vt -0.858729 0.852954
vt -0.857066 0.962329
vt -0.353401 1.146166
vt -0.418638 1.250621
vt -0.685599 1.248024
vt -0.772629 1.150917
vt -0.862907 1.062122
vt -0.354961 1.241363
vt -0.775720 1.240690
vt -0.869771 1.143717
vt -0.877013 1.231610
vt 0.507946 0.302619
vt 0.424783 0.304287
vt 0.426765 0.233258
vt 0.508045 0.231863
vt 0.333540 0.303118
vt 0.337760 0.232890
vt 0.428209 0.167093
vt 0.508796 0.166265
vt 0.591043 0.301897
vt 0.589468 0.232045
vt 0.233365 0.300145
vt 0.238055 0.231700
vt 0.339516 0.167790
vt 0.428149 0.086910
vt 0.509174 0.086417
vt 0.589105 0.167041
vt 0.680181 0.303018
vt 0.677692 0.233842
vt 0.240330 0.167760
vt 0.339888 0.087780
vt 0.427862 -0.000781
vt 0.509761 -0.001016
vt 0.589847 0.087559
vt 0.676060 0.169155
vt 0.781884 0.298179
vt 0.776353 0.232762
vt 0.241145 0.088714
vt 0.339558 0.000002
vt 0.591388 0.000341
vt 0.676700 0.090069
vt 0.773147 0.170254
vt 0.241259 0.001649
vt 0.679292 0.003409
vt 0.773216 0.092109
vt 0.773821 0.006024
vt 0.678245 0.751440
vt 0.826575 0.668586
vt 0.894043 0.727459
vt 0.710465 0.818142
vt 0.915407 0.599195
vt 0.991118 0.641169
vt 0.474584 0.777800
vt 0.499562 0.857593
vt 0.826565 0.668571
vt 0.894027 0.727452
vt 0.264111 0.752600
vt 0.259611 0.829141
vt 0.678227 0.751410
vt 0.710439 0.818117
vt 0.022632 0.740691
vt 0.056169 0.674893
vt 0.474563 0.777751
vt 0.499533 0.857546
vt 0.264093 0.752530
vt 0.259585 0.829071
vt 0.056159 0.674802
vt 0.022615 0.740598
vt -0.943852 0.848454
vt -0.953625 0.955370
vt -0.963168 1.052110
vt -1.031984 0.829310
vt -1.055251 0.939723
vt -0.974317 1.130957
vt -1.066240 1.036892
vt -0.986890 1.216773
vt -1.082607 1.111213
vt -1.099742 1.191307
vt -0.292699 0.845844
vt -0.186870 0.829578
vt -0.168029 0.936520
vt -0.271373 0.951253
vt -0.153939 1.035185
vt -0.259559 1.050118
vt -0.141673 1.113453
vt -0.253729 1.129993
vt -0.128938 1.196031
vt -0.251904 1.214996
vt 0.886721 0.299915
vt 0.883109 0.232999
vt 0.878898 0.168810
vt 0.991307 0.295105
vt 0.990278 0.228713
vt 0.879532 0.092732
vt 0.989996 0.166914
vt 0.882705 0.008899
vt 0.990249 0.094227
vt 0.992025 0.014165
vt 0.126179 0.293850
vt 0.017898 0.292057
vt 0.016024 0.226739
vt 0.129372 0.228298
vt 0.014299 0.164573
vt 0.130920 0.166361
vt 0.015735 0.086779
vt 0.131991 0.089612
vt 0.021719 -0.000094
vt 0.132992 0.005373
vn 0.000045 -0.708617 0.705593
vn -0.004845 -0.913488 0.406837
vn -0.046206 -0.912015 0.407545
vn -0.037782 -0.706938 0.706265
vn 0.005053 -0.468427 0.883488
vn -0.029530 -0.467026 0.883751
vn 0.008530 -0.230729 0.972981
vn -0.024017 -0.229957 0.972905
vn 0.009689 -0.114998 0.993318
vn -0.021971 -0.114646 0.993163
vn 0.008530 -0.230729 -0.972981
vn 0.009689 -0.114998 -0.993318
vn -0.021971 -0.114646 -0.993163
vn -0.024017 -0.229957 -0.972904
vn 0.005053 -0.468427 -0.883488
vn -0.029530 -0.467026 -0.883750
vn 0.000044 -0.708617 -0.705593
vn -0.037782 -0.706939 -0.706265
vn -0.004844 -0.913487 -0.406838
vn -0.046206 -0.912015 -0.407546
vn -0.006991 -0.999976 -0.000001
vn -0.050024 -0.998748 -0.000001
vn -0.076078 -0.909396 0.408914
vn -0.057023 -0.703614 0.708291
vn -0.035649 -0.463014 0.885634
vn -0.016167 -0.225443 0.974122
vn -0.010670 -0.114103 0.993412
vn -0.010670 -0.114103 -0.993412
vn -0.016167 -0.225443 -0.974122
vn -0.035648 -0.463014 -0.885634
vn -0.057023 -0.703614 -0.708290
vn -0.076078 -0.909396 -0.408915
vn -0.084269 -0.996443 -0.000001
vn -0.106941 -0.909892 0.400825
vn -0.044279 -0.686867 0.725433
vn 0.051553 -0.439672 0.896678
vn 0.121038 -0.217681 0.968486
vn 0.145427 -0.106787 0.983589
vn 0.145427 -0.106787 -0.983589
vn 0.121039 -0.217682 -0.968485
vn 0.062059 -0.447171 -0.892293
vn -0.011368 -0.697160 -0.716825
vn -0.076317 -0.900348 -0.428427
vn -0.114535 -0.993419 -0.000001
vn -0.153838 -0.916205 0.370003
vn -0.084869 -0.719601 0.689182
vn 0.071485 -0.444309 0.893017
vn 0.193549 -0.207754 0.958841
vn 0.226985 -0.099864 0.968765
vn 0.226986 -0.099864 -0.968764
vn 0.193549 -0.207755 -0.958841
vn 0.100911 -0.464675 -0.879712
vn -0.001070 -0.702916 -0.711272
vn -0.103003 -0.903490 -0.416048
vn -0.157220 -0.987564 -0.000001
vn -1.000000 0.000000 0.000000
vn -1.000000 0.000000 0.000000
vn -1.000000 0.000000 0.000000
vn -1.000000 0.000000 0.000000
vn -1.000000 0.000000 0.000000
vn -1.000000 0.000000 0.000000
vn -1.000000 0.000000 0.000000
vn -1.000000 0.000000 0.000000
vn -1.000000 0.000000 -0.000000
vn -1.000000 0.000000 -0.000000
vn -1.000000 0.000000 -0.000000
vn -1.000000 0.000000 -0.000000
vn -1.000000 0.000000 0.000000
vn -1.000000 0.000000 0.000000
vn -1.000000 0.000000 0.000000
vn -1.000000 0.000000 0.000000
vn -1.000000 0.000000 -0.000000
vn -1.000000 0.000000 -0.000000
vn -1.000000 0.000000 -0.000000
vn -1.000000 0.000000 -0.000000
vn -1.000000 0.000000 0.000000
vn -1.000000 0.000000 0.000000
vn -1.000000 0.000000 0.000000
vn -1.000000 0.000000 0.000000
vn -1.000000 0.000000 0.000000
vn -1.000000 0.000000 0.000000
vn -1.000000 0.000000 0.000000
vn -1.000000 0.000000 0.000000
vn -1.000000 0.000000 0.000000
vn -1.000000 0.000000 0.000000
vn -1.000000 0.000000 0.000000
vn -1.000000 0.000000 0.000000
vn -1.000000 0.000000 0.000000
vn -1.000000 0.000000 0.000000
vn -1.000000 0.000000 0.000000
vn -1.000000 0.000000 0.000000
vn -1.000000 0.000000 -0.000000
vn -1.000000 0.000000 -0.000000
vn -1.000000 0.000000 -0.000000
vn -1.000000 0.000000 -0.000000
vn -0.276582 0.673652 -0.685343
vn -0.297722 0.868805 -0.395652
vn -0.283507 0.875637 -0.391003
vn -0.264578 0.682390 -0.681427
vn -0.257360 0.445391 -0.857551
vn -0.247068 0.452811 -0.856691
vn -0.245407 0.219472 -0.944250
vn -0.236081 0.223522 -0.945676
vn -0.239974 0.110783 -0.964437
vn -0.231000 0.111252 -0.966572
vn -0.245407 0.219472 0.944250
vn -0.239974 0.110784 0.964437
vn -0.230999 0.111253 0.966573
vn -0.236080 0.223523 0.945676
vn -0.257359 0.445390 0.857551
vn -0.247068 0.452811 0.856691
vn -0.276582 0.673652 0.685343
vn -0.264578 0.682390 0.681426
vn -0.297722 0.868804 0.395652
vn -0.283505 0.875638 0.391003
vn -0.307764 0.951463 0.000001
vn -0.292352 0.956311 0.000001
vn -0.205527 0.894368 -0.397323
vn -0.193400 0.696009 -0.691496
vn -0.182385 0.461276 -0.868308
vn -0.175614 0.227530 -0.957805
vn -0.172289 0.113136 -0.978528
vn -0.172289 0.113137 0.978528
vn -0.175614 0.227530 0.957805
vn -0.182385 0.461276 0.868309
vn -0.193400 0.696010 0.691496
vn -0.205527 0.894367 0.397323
vn -0.211253 0.977431 0.000002
vn -0.112144 0.908803 -0.401871
vn -0.107360 0.706915 -0.699103
vn -0.103291 0.468304 -0.877509
vn -0.100976 0.230935 -0.967715
vn -0.099598 0.114772 -0.988386
vn -0.099597 0.114774 0.988386
vn -0.100975 0.230936 0.967715
vn -0.103290 0.468304 0.877509
vn -0.107359 0.706915 0.699103
vn -0.112144 0.908803 0.401872
vn -0.114486 0.993425 0.000001
vn -0.072891 0.912523 -0.402478
vn -0.071245 0.710114 -0.700473
vn -0.070144 0.470591 -0.879559
vn -0.069734 0.232110 -0.970187
vn -0.069193 0.115311 -0.990917
vn -0.069191 0.115312 0.990917
vn -0.069732 0.232111 0.970187
vn -0.070143 0.470591 0.879559
vn -0.071243 0.710114 0.700473
vn -0.072890 0.912523 0.402479
vn -0.073786 0.997274 0.000001
s 1
g pasted__pTorus1 group7
usemtl lambert5SG
f 2/17/1 1/9/2 12/10/3 13/18/4
f 3/25/5 2/17/1 13/18/4 14/26/6
f 4/93/7 3/25/5 14/26/6 15/94/8
f 5/96/9 4/93/7 15/94/8 16/97/10
f 7/103/11 6/104/12 17/105/13 18/106/14
f 8/11/15 7/103/11 18/106/14 19/12/16
f 9/5/17 8/11/15 19/12/16 20/6/18
f 10/2/19 9/5/17 20/6/18 21/3/20
f 11/1/21 10/2/19 21/3/20 22/4/22
f 1/9/2 11/1/21 22/4/22 12/10/3
f 13/18/4 12/10/3 23/16/23 24/24/24
f 14/26/6 13/18/4 24/24/24 25/31/25
f 15/94/8 14/26/6 25/31/25 26/95/26
f 16/97/10 15/94/8 26/95/26 27/99/27
f 18/106/14 17/105/13 28/107/28 29/108/29
f 19/12/16 18/106/14 29/108/29 30/19/30
f 20/6/18 19/12/16 30/19/30 31/13/31
f 21/3/20 20/6/18 31/13/31 32/7/32
f 22/4/22 21/3/20 32/7/32 33/8/33
f 12/10/3 22/4/22 33/8/33 23/16/23
f 24/24/24 23/16/23 34/23/34 35/30/35
f 25/31/25 24/24/24 35/30/35 36/34/36
f 26/95/26 25/31/25 36/34/36 37/98/37
f 27/99/27 26/95/26 37/98/37 38/101/38
f 29/108/29 28/107/28 39/109/39 40/110/40
f 30/19/30 29/108/29 40/110/40 41/27/41
f 31/13/31 30/19/30 41/27/41 42/20/42
f 32/7/32 31/13/31 42/20/42 43/14/43
f 33/8/33 32/7/32 43/14/43 44/15/44
f 23/16/23 33/8/33 44/15/44 34/23/34
f 35/30/35 34/23/34 45/29/45 46/33/46
f 36/34/36 35/30/35 46/33/46 47/35/47
f 37/98/37 36/34/36 47/35/47 48/100/48
f 38/101/38 37/98/37 48/100/48 49/102/49
f 40/110/40 39/109/39 50/111/50 51/112/51
f 41/27/41 40/110/40 51/112/51 52/32/52
f 42/20/42 41/27/41 52/32/52 53/28/53
f 43/14/43 42/20/42 53/28/53 54/21/54
f 44/15/44 43/14/43 54/21/54 55/22/55
f 34/23/34 44/15/44 55/22/55 45/29/45
s off
f 46/71/56 45/72/57 56/73/58 57/74/59
f 47/77/60 46/71/61 57/74/62 58/78/63
f 48/81/64 47/77/65 58/78/66 59/82/67
f 60/85/68 49/86/69 48/81/70 59/82/71
f 51/89/72 50/91/73 61/92/74 62/90/75
f 52/87/76 51/89/77 62/90/78 63/88/79
f 53/83/80 52/87/81 63/88/82 64/84/83
f 54/79/84 53/83/85 64/84/86 65/80/87
f 55/75/88 54/79/89 65/80/90 66/76/91
f 45/72/92 55/75/93 66/76/94 56/73/95
s 3
f 57/52/96 56/44/97 67/45/98 68/53/99
f 58/60/100 57/52/96 68/53/99 69/61/101
f 59/113/102 58/60/100 69/61/101 70/114/103
f 60/116/104 59/113/102 70/114/103 71/117/105
f 62/123/106 61/124/107 72/125/108 73/126/109
f 63/46/110 62/123/106 73/126/109 74/47/111
f 64/40/112 63/46/110 74/47/111 75/41/113
f 65/37/114 64/40/112 75/41/113 76/38/115
f 66/36/116 65/37/114 76/38/115 77/39/117
f 56/44/97 66/36/116 77/39/117 67/45/98
f 68/53/99 67/45/98 78/51/118 79/59/119
f 69/61/101 68/53/99 79/59/119 80/66/120
f 70/114/103 69/61/101 80/66/120 81/115/121
f 71/117/105 70/114/103 81/115/121 82/119/122
f 73/126/109 72/125/108 83/127/123 84/128/124
f 74/47/111 73/126/109 84/128/124 85/54/125
f 75/41/113 74/47/111 85/54/125 86/48/126
f 76/38/115 75/41/113 86/48/126 87/42/127
f 77/39/117 76/38/115 87/42/127 88/43/128
f 67/45/98 77/39/117 88/43/128 78/51/118
f 79/59/119 78/51/118 89/58/129 90/65/130
f 80/66/120 79/59/119 90/65/130 91/69/131
f 81/115/121 80/66/120 91/69/131 92/118/132
f 82/119/122 81/115/121 92/118/132 93/121/133
f 84/128/124 83/127/123 94/129/134 95/130/135
f 85/54/125 84/128/124 95/130/135 96/62/136
f 86/48/126 85/54/125 96/62/136 97/55/137
f 87/42/127 86/48/126 97/55/137 98/49/138
f 88/43/128 87/42/127 98/49/138 99/50/139
f 78/51/118 88/43/128 99/50/139 89/58/129
f 90/65/130 89/58/129 100/64/140 101/68/141
f 91/69/131 90/65/130 101/68/141 102/70/142
f 92/118/132 91/69/131 102/70/142 103/120/143
f 93/121/133 92/118/132 103/120/143 104/122/144
f 95/130/135 94/129/134 105/131/145 106/132/146
f 96/62/136 95/130/135 106/132/146 107/67/147
f 97/55/137 96/62/136 107/67/147 108/63/148
f 98/49/138 97/55/137 108/63/148 109/56/149
f 99/50/139 98/49/138 109/56/149 110/57/150
f 89/58/129 99/50/139 110/57/150 100/64/140
